HIERARCHY
ROOT SpineBase
{
  OFFSET 0.000000 0.000000 0.000000
  CHANNELS 6 Xposition Yposition Zposition Zrotation Xrotation Yrotation
  JOINT SpineMid
  {
    OFFSET -0.000000 26.946569 0.000000
    CHANNELS 3 Zrotation Xrotation Yrotation
    JOINT SpineShoulder
    {
      OFFSET -0.162183 20.016588 -0.648935
      CHANNELS 3 Zrotation Xrotation Yrotation
      JOINT Neck
      {
        OFFSET -0.111429 6.619839 -0.494155
        CHANNELS 3 Zrotation Xrotation Yrotation
        JOINT Head
        {
          OFFSET -3.446169 11.837047 1.017365
          CHANNELS 3 Zrotation Xrotation Yrotation
          End Site
          {
            OFFSET 0 0 0
          }
        }
      }
      JOINT ShoulderLeft
      {
        OFFSET -12.226560 -6.748763 10.542087
        CHANNELS 3 Zrotation Xrotation Yrotation
        JOINT ElbowLeft
        {
          OFFSET -2.475295 -23.409605 -1.581113
          CHANNELS 3 Zrotation Xrotation Yrotation
          JOINT WristLeft
          {
            OFFSET 2.242952 -16.151709 -14.367097
            CHANNELS 3 Zrotation Xrotation Yrotation
            JOINT HandLeft
            {
              OFFSET 0.402768 -6.357692 -2.509163
              CHANNELS 3 Zrotation Xrotation Yrotation
              JOINT HandTipLeft
              {
                OFFSET -1.218537 -5.472117 -2.536692
                CHANNELS 3 Zrotation Xrotation Yrotation
                End Site
                {
                  OFFSET 0 0 0
                }
              }
              JOINT ThumbLeft
              {
                OFFSET -4.336315 0.919467 -1.945507
                CHANNELS 3 Zrotation Xrotation Yrotation
                End Site
                {
                  OFFSET 0 0 0
                }
              }
            }
          }
        }
      }
      JOINT ShoulderRight
      {
        OFFSET 8.511410 -4.671663 -9.950620
        CHANNELS 3 Zrotation Xrotation Yrotation
        JOINT ElbowRight
        {
          OFFSET 5.071747 -22.642040 -5.435702
          CHANNELS 3 Zrotation Xrotation Yrotation
          JOINT WristRight
          {
            OFFSET 0.649243 -16.002870 -4.633790
            CHANNELS 3 Zrotation Xrotation Yrotation
            JOINT HandRight
            {
              OFFSET 0.665916 -2.640771 0.469341
              CHANNELS 3 Zrotation Xrotation Yrotation
              JOINT HandTipRight
              {
                OFFSET -1.692657 -3.003526 -0.923907
                CHANNELS 3 Zrotation Xrotation Yrotation
                End Site
                {
                  OFFSET 0 0 0
                }
              }
              JOINT ThumbRight
              {
                OFFSET -2.627957 -0.791116 -0.138444
                CHANNELS 3 Zrotation Xrotation Yrotation
                End Site
                {
                  OFFSET 0 0 0
                }
              }
            }
          }
        }
      }
    }
  }
  JOINT HipLeft
  {
    OFFSET -4.880147 0.645463 0.796691
    CHANNELS 3 Zrotation Xrotation Yrotation
    JOINT KneeLeft
    {
      OFFSET 1.519537 -28.514292 4.678832
      CHANNELS 3 Zrotation Xrotation Yrotation
      JOINT AnkleLeft
      {
        OFFSET 2.636230 -27.789582 1.614230
        CHANNELS 3 Zrotation Xrotation Yrotation
        JOINT FootLeft
        {
          OFFSET -3.041937 -4.660505 -6.783673
          CHANNELS 3 Zrotation Xrotation Yrotation
          End Site
          {
            OFFSET 0 0 0
          }
        }
      }
    }
  }
  JOINT HipRight
  {
    OFFSET 3.537543 0.536531 -7.090849
    CHANNELS 3 Zrotation Xrotation Yrotation
    JOINT KneeRight
    {
      OFFSET 7.501890 -24.292305 3.081315
      CHANNELS 3 Zrotation Xrotation Yrotation
      JOINT AnkleRight
      {
        OFFSET 6.053689 -32.670526 8.557361
        CHANNELS 3 Zrotation Xrotation Yrotation
        JOINT FootRight
        {
          OFFSET -2.586251 -6.246412 -3.527285
          CHANNELS 3 Zrotation Xrotation Yrotation
          End Site
          {
            OFFSET 0 0 0
          }
        }
      }
    }
  }
}
MOTION
Frames: 5
Frame Time: 0.033333
65.370753 64.739454 337.210730 -0.802550 1.359739 47.513942 -0.225384 -0.108316 -47.526458 -0.150544 -0.202663 -0.045140 1.026492 -0.916639 0.069357 0.000000 0.000000 0.000000 7.012967 18.980159 -3.394738 -16.528959 -49.015520 -0.222633 3.341680 9.961689 -3.677808 2.467817 11.829676 2.157911 0.000000 0.000000 0.000000 0.000000 0.000000 0.000000 0.207482 0.172656 0.504279 -0.047623 -3.630190 -0.327735 -22.673321 0.623520 -4.447375 62.684325 -13.276587 7.489494 0.000000 0.000000 0.000000 0.000000 0.000000 0.000000 -1.775430 -9.029069 -47.191900 2.100950 5.399884 -0.536936 -4.194541 -11.323480 4.884745 0.000000 0.000000 0.000000 -2.991473 7.206036 -47.165020 6.141268 -0.338583 0.161809 -10.720123 -10.640832 8.218026 0.000000 0.000000 0.000000
65.372159 64.745459 337.161380 -0.776560 1.315767 47.584712 -0.240527 -0.092180 -47.598211 -0.142860 -0.190047 -0.044302 1.014610 -0.884917 0.068630 0.000000 0.000000 0.000000 6.960878 18.332457 -3.281241 -16.196976 -47.428054 0.172095 3.072628 8.442623 -3.727723 2.951229 11.851716 1.984894 0.000000 0.000000 0.000000 0.000000 0.000000 0.000000 0.202402 0.141221 0.487894 -0.109799 -3.342609 -0.285900 -22.838683 0.574927 -4.530375 63.037415 -12.643358 6.649453 0.000000 0.000000 0.000000 0.000000 0.000000 0.000000 -1.885901 -9.087011 -47.282044 2.085206 5.711965 -0.535136 -4.668775 -11.361877 5.538549 0.000000 0.000000 0.000000 -2.731156 7.274461 -47.168136 5.942957 -0.538668 0.068646 -10.115067 -10.927136 8.110969 0.000000 0.000000 0.000000
65.377152 64.760240 337.089845 -0.763889 1.316220 47.594672 -0.251868 -0.083001 -47.608525 -0.138623 -0.185448 -0.043909 1.012088 -0.887774 0.068400 0.000000 0.000000 0.000000 6.809582 17.645459 -3.139961 -15.701245 -46.071649 0.457430 2.404354 7.439832 -3.354397 2.970880 11.856028 2.155974 0.000000 0.000000 0.000000 0.000000 0.000000 0.000000 0.149651 0.123903 0.496073 -0.041631 -3.287993 -0.296802 -22.620215 0.404790 -4.563073 62.912319 -12.679018 6.650242 0.000000 0.000000 0.000000 0.000000 0.000000 0.000000 -2.013487 -9.173275 -47.313362 2.086414 5.941680 -0.534758 -4.802587 -11.319680 5.643402 0.000000 0.000000 0.000000 -2.623473 7.283699 -47.146956 6.135636 -0.605350 0.119783 -9.697151 -10.479104 7.579439 0.000000 0.000000 0.000000
65.383287 64.793354 337.020469 -0.768964 1.348581 47.585828 -0.248872 -0.076422 -47.599361 -0.135478 -0.189027 -0.043786 1.016927 -0.923219 0.068515 0.000000 0.000000 0.000000 6.880924 18.117581 -3.231114 -15.888813 -47.169839 0.187613 1.903180 7.562655 -2.943848 3.651590 12.779311 1.711249 0.000000 0.000000 0.000000 0.000000 0.000000 0.000000 0.122468 0.036820 0.491234 -0.059496 -3.299519 -0.282671 -22.299746 -0.576395 -4.996598 63.260233 -12.831182 7.002341 0.000000 0.000000 0.000000 0.000000 0.000000 0.000000 -2.137278 -9.237375 -47.327689 2.105994 6.109103 -0.529310 -4.756113 -11.432056 5.638879 0.000000 0.000000 0.000000 -2.808539 7.211279 -47.189852 6.240911 -0.500684 0.172507 -9.098167 -9.887535 7.145208 0.000000 0.000000 0.000000
65.394149 64.827880 336.946995 -0.760623 1.399737 47.518046 -0.245345 -0.070253 -47.530677 -0.131379 -0.187506 -0.042696 1.006966 -0.982834 0.067210 0.000000 0.000000 0.000000 6.705880 17.501377 -3.102695 -15.485961 -46.202128 0.387273 1.213498 6.734058 -2.548005 4.439566 14.949537 0.937980 0.000000 0.000000 0.000000 0.000000 0.000000 0.000000 0.060486 -0.032199 0.498912 -0.023897 -3.676978 -0.308368 -22.451433 -1.005936 -5.237612 63.669743 -12.391370 6.689874 0.000000 0.000000 0.000000 0.000000 0.000000 0.000000 -2.278348 -9.282215 -47.285578 2.127652 6.181157 -0.523300 -4.714732 -11.773875 5.961144 0.000000 0.000000 0.000000 -3.140978 7.094712 -47.211509 6.070099 -0.486542 0.122857 -7.855967 -8.230928 6.439169 0.000000 0.000000 0.000000
